<?xml version="1.0" encoding="utf-8" standalone="no"?>
<!DOCTYPE svg PUBLIC "-//W3C//DTD SVG 1.1//EN"
  "http://www.w3.org/Graphics/SVG/1.1/DTD/svg11.dtd">
<!-- Created with matplotlib (https://matplotlib.org/) -->
<svg height="576pt" version="1.1" viewBox="0 0 1008 576" width="1008pt" xmlns="http://www.w3.org/2000/svg" xmlns:xlink="http://www.w3.org/1999/xlink">
 <metadata>
  <rdf:RDF xmlns:cc="http://creativecommons.org/ns#" xmlns:dc="http://purl.org/dc/elements/1.1/" xmlns:rdf="http://www.w3.org/1999/02/22-rdf-syntax-ns#">
   <cc:Work>
    <dc:type rdf:resource="http://purl.org/dc/dcmitype/StillImage"/>
    <dc:date>2020-11-26T16:11:12.208662</dc:date>
    <dc:format>image/svg+xml</dc:format>
    <dc:creator>
     <cc:Agent>
      <dc:title>Matplotlib v3.3.2, https://matplotlib.org/</dc:title>
     </cc:Agent>
    </dc:creator>
   </cc:Work>
  </rdf:RDF>
 </metadata>
 <defs>
  <style type="text/css">*{stroke-linecap:butt;stroke-linejoin:round;}</style>
 </defs>
 <g id="figure_1">
  <g id="patch_1">
   <path d="M 0 576 
L 1008 576 
L 1008 0 
L 0 0 
z
" style="fill:none;"/>
  </g>
  <g id="axes_1">
   <g id="patch_2">
    <path d="M 67.3 526.2 
L 997.2 526.2 
L 997.2 27.8 
L 67.3 27.8 
z
" style="fill:#ffffff;"/>
   </g>
   <g id="PathCollection_1">
    <defs>
     <path d="M 0 3 
C 0.795609 3 1.55874 2.683901 2.12132 2.12132 
C 2.683901 1.55874 3 0.795609 3 0 
C 3 -0.795609 2.683901 -1.55874 2.12132 -2.12132 
C 1.55874 -2.683901 0.795609 -3 0 -3 
C -0.795609 -3 -1.55874 -2.683901 -2.12132 -2.12132 
C -2.683901 -1.55874 -3 -0.795609 -3 0 
C -3 0.795609 -2.683901 1.55874 -2.12132 2.12132 
C -1.55874 2.683901 -0.795609 3 0 3 
z
" id="mfa745c23f7" style="stroke:#1f77b4;"/>
    </defs>
    <g clip-path="url(#p922c5a5420)">
     <use style="fill:#1f77b4;stroke:#1f77b4;" x="703.077235" xlink:href="#mfa745c23f7" y="237.338724"/>
     <use style="fill:#1f77b4;stroke:#1f77b4;" x="627.053133" xlink:href="#mfa745c23f7" y="237.993832"/>
     <use style="fill:#1f77b4;stroke:#1f77b4;" x="680.302329" xlink:href="#mfa745c23f7" y="218.397806"/>
     <use style="fill:#1f77b4;stroke:#1f77b4;" x="715.546308" xlink:href="#mfa745c23f7" y="227.442988"/>
     <use style="fill:#1f77b4;stroke:#1f77b4;" x="650.637801" xlink:href="#mfa745c23f7" y="231.736429"/>
     <use style="fill:#1f77b4;stroke:#1f77b4;" x="628.698344" xlink:href="#mfa745c23f7" y="221.365029"/>
    </g>
   </g>
   <g id="PathCollection_2">
    <defs>
     <path d="M 0 3 
C 0.795609 3 1.55874 2.683901 2.12132 2.12132 
C 2.683901 1.55874 3 0.795609 3 0 
C 3 -0.795609 2.683901 -1.55874 2.12132 -2.12132 
C 1.55874 -2.683901 0.795609 -3 0 -3 
C -0.795609 -3 -1.55874 -2.683901 -2.12132 -2.12132 
C -2.683901 -1.55874 -3 -0.795609 -3 0 
C -3 0.795609 -2.683901 1.55874 -2.12132 2.12132 
C -1.55874 2.683901 -0.795609 3 0 3 
z
" id="me3a77bead1" style="stroke:#ff7f0e;"/>
    </defs>
    <g clip-path="url(#p922c5a5420)">
     <use style="fill:#ff7f0e;stroke:#ff7f0e;" x="381.830618" xlink:href="#me3a77bead1" y="86.301614"/>
     <use style="fill:#ff7f0e;stroke:#ff7f0e;" x="398.184016" xlink:href="#me3a77bead1" y="74.379581"/>
     <use style="fill:#ff7f0e;stroke:#ff7f0e;" x="365.68409" xlink:href="#me3a77bead1" y="115.241911"/>
     <use style="fill:#ff7f0e;stroke:#ff7f0e;" x="355.429159" xlink:href="#me3a77bead1" y="93.891857"/>
     <use style="fill:#ff7f0e;stroke:#ff7f0e;" x="413.777117" xlink:href="#me3a77bead1" y="95.478115"/>
     <use style="fill:#ff7f0e;stroke:#ff7f0e;" x="384.043586" xlink:href="#me3a77bead1" y="103.181321"/>
    </g>
   </g>
   <g id="PathCollection_3">
    <defs>
     <path d="M 0 3 
C 0.795609 3 1.55874 2.683901 2.12132 2.12132 
C 2.683901 1.55874 3 0.795609 3 0 
C 3 -0.795609 2.683901 -1.55874 2.12132 -2.12132 
C 1.55874 -2.683901 0.795609 -3 0 -3 
C -0.795609 -3 -1.55874 -2.683901 -2.12132 -2.12132 
C -2.683901 -1.55874 -3 -0.795609 -3 0 
C -3 0.795609 -2.683901 1.55874 -2.12132 2.12132 
C -1.55874 2.683901 -0.795609 3 0 3 
z
" id="mdb9001760f" style="stroke:#2ca02c;"/>
    </defs>
    <g clip-path="url(#p922c5a5420)">
     <use style="fill:#2ca02c;stroke:#2ca02c;" x="419.182635" xlink:href="#mdb9001760f" y="472.313833"/>
     <use style="fill:#2ca02c;stroke:#2ca02c;" x="385.216281" xlink:href="#mdb9001760f" y="482.325473"/>
     <use style="fill:#2ca02c;stroke:#2ca02c;" x="399.277824" xlink:href="#mdb9001760f" y="499.77498"/>
     <use style="fill:#2ca02c;stroke:#2ca02c;" x="414.847158" xlink:href="#mdb9001760f" y="488.149761"/>
     <use style="fill:#2ca02c;stroke:#2ca02c;" x="438.602259" xlink:href="#mdb9001760f" y="503.545455"/>
     <use style="fill:#2ca02c;stroke:#2ca02c;" x="456.371271" xlink:href="#mdb9001760f" y="492.196545"/>
    </g>
   </g>
   <g id="PathCollection_4">
    <defs>
     <path d="M 0 3 
C 0.795609 3 1.55874 2.683901 2.12132 2.12132 
C 2.683901 1.55874 3 0.795609 3 0 
C 3 -0.795609 2.683901 -1.55874 2.12132 -2.12132 
C 1.55874 -2.683901 0.795609 -3 0 -3 
C -0.795609 -3 -1.55874 -2.683901 -2.12132 -2.12132 
C -2.683901 -1.55874 -3 -0.795609 -3 0 
C -3 0.795609 -2.683901 1.55874 -2.12132 2.12132 
C -1.55874 2.683901 -0.795609 3 0 3 
z
" id="md831d49a0c" style="stroke:#d62728;"/>
    </defs>
    <g clip-path="url(#p922c5a5420)">
     <use style="fill:#d62728;stroke:#d62728;" x="861.478691" xlink:href="#md831d49a0c" y="254.041328"/>
     <use style="fill:#d62728;stroke:#d62728;" x="834.889531" xlink:href="#md831d49a0c" y="265.780349"/>
     <use style="fill:#d62728;stroke:#d62728;" x="808.340228" xlink:href="#md831d49a0c" y="260.810968"/>
     <use style="fill:#d62728;stroke:#d62728;" x="869.110946" xlink:href="#md831d49a0c" y="237.642242"/>
     <use style="fill:#d62728;stroke:#d62728;" x="834.479375" xlink:href="#md831d49a0c" y="249.345204"/>
     <use style="fill:#d62728;stroke:#d62728;" x="880.507542" xlink:href="#md831d49a0c" y="271.078008"/>
    </g>
   </g>
   <g id="PathCollection_5">
    <defs>
     <path d="M 0 3 
C 0.795609 3 1.55874 2.683901 2.12132 2.12132 
C 2.683901 1.55874 3 0.795609 3 0 
C 3 -0.795609 2.683901 -1.55874 2.12132 -2.12132 
C 1.55874 -2.683901 0.795609 -3 0 -3 
C -0.795609 -3 -1.55874 -2.683901 -2.12132 -2.12132 
C -2.683901 -1.55874 -3 -0.795609 -3 0 
C -3 0.795609 -2.683901 1.55874 -2.12132 2.12132 
C -1.55874 2.683901 -0.795609 3 0 3 
z
" id="m14ff0e8059" style="stroke:#9467bd;"/>
    </defs>
    <g clip-path="url(#p922c5a5420)">
     <use style="fill:#9467bd;stroke:#9467bd;" x="131.973513" xlink:href="#m14ff0e8059" y="286.324988"/>
     <use style="fill:#9467bd;stroke:#9467bd;" x="234.302971" xlink:href="#m14ff0e8059" y="239.450072"/>
     <use style="fill:#9467bd;stroke:#9467bd;" x="954.931818" xlink:href="#m14ff0e8059" y="410.712649"/>
     <use style="fill:#9467bd;stroke:#9467bd;" x="123.305385" xlink:href="#m14ff0e8059" y="308.139927"/>
     <use style="fill:#9467bd;stroke:#9467bd;" x="109.568182" xlink:href="#m14ff0e8059" y="294.702532"/>
     <use style="fill:#9467bd;stroke:#9467bd;" x="149.371874" xlink:href="#m14ff0e8059" y="298.294315"/>
    </g>
   </g>
   <g id="PathCollection_6">
    <defs>
     <path d="M 0 3 
C 0.795609 3 1.55874 2.683901 2.12132 2.12132 
C 2.683901 1.55874 3 0.795609 3 0 
C 3 -0.795609 2.683901 -1.55874 2.12132 -2.12132 
C 1.55874 -2.683901 0.795609 -3 0 -3 
C -0.795609 -3 -1.55874 -2.683901 -2.12132 -2.12132 
C -2.683901 -1.55874 -3 -0.795609 -3 0 
C -3 0.795609 -2.683901 1.55874 -2.12132 2.12132 
C -1.55874 2.683901 -0.795609 3 0 3 
z
" id="mbeaef3b203" style="stroke:#8c564b;"/>
    </defs>
    <g clip-path="url(#p922c5a5420)">
     <use style="fill:#8c564b;stroke:#8c564b;" x="339.610143" xlink:href="#mbeaef3b203" y="351.756238"/>
     <use style="fill:#8c564b;stroke:#8c564b;" x="373.701148" xlink:href="#mbeaef3b203" y="352.401137"/>
     <use style="fill:#8c564b;stroke:#8c564b;" x="304.466347" xlink:href="#mbeaef3b203" y="348.995714"/>
     <use style="fill:#8c564b;stroke:#8c564b;" x="351.001153" xlink:href="#mbeaef3b203" y="365.894998"/>
     <use style="fill:#8c564b;stroke:#8c564b;" x="328.960593" xlink:href="#mbeaef3b203" y="336.100298"/>
     <use style="fill:#8c564b;stroke:#8c564b;" x="361.272588" xlink:href="#mbeaef3b203" y="336.528493"/>
    </g>
   </g>
   <g id="PathCollection_7">
    <defs>
     <path d="M 0 3 
C 0.795609 3 1.55874 2.683901 2.12132 2.12132 
C 2.683901 1.55874 3 0.795609 3 0 
C 3 -0.795609 2.683901 -1.55874 2.12132 -2.12132 
C 1.55874 -2.683901 0.795609 -3 0 -3 
C -0.795609 -3 -1.55874 -2.683901 -2.12132 -2.12132 
C -2.683901 -1.55874 -3 -0.795609 -3 0 
C -3 0.795609 -2.683901 1.55874 -2.12132 2.12132 
C -1.55874 2.683901 -0.795609 3 0 3 
z
" id="m33cab5e5f5" style="stroke:#e377c2;"/>
    </defs>
    <g clip-path="url(#p922c5a5420)">
     <use style="fill:#e377c2;stroke:#e377c2;" x="683.862569" xlink:href="#m33cab5e5f5" y="410.681837"/>
     <use style="fill:#e377c2;stroke:#e377c2;" x="712.059967" xlink:href="#m33cab5e5f5" y="403.330832"/>
     <use style="fill:#e377c2;stroke:#e377c2;" x="722.504967" xlink:href="#m33cab5e5f5" y="440.414512"/>
     <use style="fill:#e377c2;stroke:#e377c2;" x="687.987049" xlink:href="#m33cab5e5f5" y="396.179226"/>
     <use style="fill:#e377c2;stroke:#e377c2;" x="722.536113" xlink:href="#m33cab5e5f5" y="420.8692"/>
     <use style="fill:#e377c2;stroke:#e377c2;" x="695.520109" xlink:href="#m33cab5e5f5" y="430.164426"/>
    </g>
   </g>
   <g id="PathCollection_8">
    <defs>
     <path d="M 0 3 
C 0.795609 3 1.55874 2.683901 2.12132 2.12132 
C 2.683901 1.55874 3 0.795609 3 0 
C 3 -0.795609 2.683901 -1.55874 2.12132 -2.12132 
C 1.55874 -2.683901 0.795609 -3 0 -3 
C -0.795609 -3 -1.55874 -2.683901 -2.12132 -2.12132 
C -2.683901 -1.55874 -3 -0.795609 -3 0 
C -3 0.795609 -2.683901 1.55874 -2.12132 2.12132 
C -1.55874 2.683901 -0.795609 3 0 3 
z
" id="m57fafcb52d" style="stroke:#7f7f7f;"/>
    </defs>
    <g clip-path="url(#p922c5a5420)">
     <use style="fill:#7f7f7f;stroke:#7f7f7f;" x="578.65235" xlink:href="#m57fafcb52d" y="75.21117"/>
     <use style="fill:#7f7f7f;stroke:#7f7f7f;" x="635.643051" xlink:href="#m57fafcb52d" y="73.634355"/>
     <use style="fill:#7f7f7f;stroke:#7f7f7f;" x="609.085922" xlink:href="#m57fafcb52d" y="50.454545"/>
     <use style="fill:#7f7f7f;stroke:#7f7f7f;" x="633.725127" xlink:href="#m57fafcb52d" y="50.690932"/>
     <use style="fill:#7f7f7f;stroke:#7f7f7f;" x="665.059507" xlink:href="#m57fafcb52d" y="77.30842"/>
     <use style="fill:#7f7f7f;stroke:#7f7f7f;" x="603.050235" xlink:href="#m57fafcb52d" y="70.472549"/>
    </g>
   </g>
   <g id="matplotlib.axis_1">
    <g id="xtick_1">
     <g id="line2d_1">
      <path clip-path="url(#p922c5a5420)" d="M 68.618746 526.2 
L 68.618746 27.8 
" style="fill:none;stroke:#b0b0b0;stroke-linecap:square;stroke-width:0.8;"/>
     </g>
     <g id="line2d_2">
      <defs>
       <path d="M 0 0 
L 0 3.5 
" id="mb337289be0" style="stroke:#000000;stroke-width:0.8;"/>
      </defs>
      <g>
       <use style="stroke:#000000;stroke-width:0.8;" x="68.618746" xlink:href="#mb337289be0" y="526.2"/>
      </g>
     </g>
     <g id="text_1">
      <!-- −300 -->
      <g transform="translate(54.885152 540.798437)scale(0.1 -0.1)">
       <defs>
        <path d="M 10.59375 35.5 
L 73.1875 35.5 
L 73.1875 27.203125 
L 10.59375 27.203125 
z
" id="DejaVuSans-8722"/>
        <path d="M 40.578125 39.3125 
Q 47.65625 37.796875 51.625 33 
Q 55.609375 28.21875 55.609375 21.1875 
Q 55.609375 10.40625 48.1875 4.484375 
Q 40.765625 -1.421875 27.09375 -1.421875 
Q 22.515625 -1.421875 17.65625 -0.515625 
Q 12.796875 0.390625 7.625 2.203125 
L 7.625 11.71875 
Q 11.71875 9.328125 16.59375 8.109375 
Q 21.484375 6.890625 26.8125 6.890625 
Q 36.078125 6.890625 40.9375 10.546875 
Q 45.796875 14.203125 45.796875 21.1875 
Q 45.796875 27.640625 41.28125 31.265625 
Q 36.765625 34.90625 28.71875 34.90625 
L 20.21875 34.90625 
L 20.21875 43.015625 
L 29.109375 43.015625 
Q 36.375 43.015625 40.234375 45.921875 
Q 44.09375 48.828125 44.09375 54.296875 
Q 44.09375 59.90625 40.109375 62.90625 
Q 36.140625 65.921875 28.71875 65.921875 
Q 24.65625 65.921875 20.015625 65.03125 
Q 15.375 64.15625 9.8125 62.3125 
L 9.8125 71.09375 
Q 15.4375 72.65625 20.34375 73.4375 
Q 25.25 74.21875 29.59375 74.21875 
Q 40.828125 74.21875 47.359375 69.109375 
Q 53.90625 64.015625 53.90625 55.328125 
Q 53.90625 49.265625 50.4375 45.09375 
Q 46.96875 40.921875 40.578125 39.3125 
z
" id="DejaVuSans-51"/>
        <path d="M 31.78125 66.40625 
Q 24.171875 66.40625 20.328125 58.90625 
Q 16.5 51.421875 16.5 36.375 
Q 16.5 21.390625 20.328125 13.890625 
Q 24.171875 6.390625 31.78125 6.390625 
Q 39.453125 6.390625 43.28125 13.890625 
Q 47.125 21.390625 47.125 36.375 
Q 47.125 51.421875 43.28125 58.90625 
Q 39.453125 66.40625 31.78125 66.40625 
z
M 31.78125 74.21875 
Q 44.046875 74.21875 50.515625 64.515625 
Q 56.984375 54.828125 56.984375 36.375 
Q 56.984375 17.96875 50.515625 8.265625 
Q 44.046875 -1.421875 31.78125 -1.421875 
Q 19.53125 -1.421875 13.0625 8.265625 
Q 6.59375 17.96875 6.59375 36.375 
Q 6.59375 54.828125 13.0625 64.515625 
Q 19.53125 74.21875 31.78125 74.21875 
z
" id="DejaVuSans-48"/>
       </defs>
       <use xlink:href="#DejaVuSans-8722"/>
       <use x="83.789062" xlink:href="#DejaVuSans-51"/>
       <use x="147.412109" xlink:href="#DejaVuSans-48"/>
       <use x="211.035156" xlink:href="#DejaVuSans-48"/>
      </g>
     </g>
    </g>
    <g id="xtick_2">
     <g id="line2d_3">
      <path clip-path="url(#p922c5a5420)" d="M 219.257653 526.2 
L 219.257653 27.8 
" style="fill:none;stroke:#b0b0b0;stroke-linecap:square;stroke-width:0.8;"/>
     </g>
     <g id="line2d_4">
      <g>
       <use style="stroke:#000000;stroke-width:0.8;" x="219.257653" xlink:href="#mb337289be0" y="526.2"/>
      </g>
     </g>
     <g id="text_2">
      <!-- −200 -->
      <g transform="translate(205.524059 540.798437)scale(0.1 -0.1)">
       <defs>
        <path d="M 19.1875 8.296875 
L 53.609375 8.296875 
L 53.609375 0 
L 7.328125 0 
L 7.328125 8.296875 
Q 12.9375 14.109375 22.625 23.890625 
Q 32.328125 33.6875 34.8125 36.53125 
Q 39.546875 41.84375 41.421875 45.53125 
Q 43.3125 49.21875 43.3125 52.78125 
Q 43.3125 58.59375 39.234375 62.25 
Q 35.15625 65.921875 28.609375 65.921875 
Q 23.96875 65.921875 18.8125 64.3125 
Q 13.671875 62.703125 7.8125 59.421875 
L 7.8125 69.390625 
Q 13.765625 71.78125 18.9375 73 
Q 24.125 74.21875 28.421875 74.21875 
Q 39.75 74.21875 46.484375 68.546875 
Q 53.21875 62.890625 53.21875 53.421875 
Q 53.21875 48.921875 51.53125 44.890625 
Q 49.859375 40.875 45.40625 35.40625 
Q 44.1875 33.984375 37.640625 27.21875 
Q 31.109375 20.453125 19.1875 8.296875 
z
" id="DejaVuSans-50"/>
       </defs>
       <use xlink:href="#DejaVuSans-8722"/>
       <use x="83.789062" xlink:href="#DejaVuSans-50"/>
       <use x="147.412109" xlink:href="#DejaVuSans-48"/>
       <use x="211.035156" xlink:href="#DejaVuSans-48"/>
      </g>
     </g>
    </g>
    <g id="xtick_3">
     <g id="line2d_5">
      <path clip-path="url(#p922c5a5420)" d="M 369.89656 526.2 
L 369.89656 27.8 
" style="fill:none;stroke:#b0b0b0;stroke-linecap:square;stroke-width:0.8;"/>
     </g>
     <g id="line2d_6">
      <g>
       <use style="stroke:#000000;stroke-width:0.8;" x="369.89656" xlink:href="#mb337289be0" y="526.2"/>
      </g>
     </g>
     <g id="text_3">
      <!-- −100 -->
      <g transform="translate(356.162966 540.798437)scale(0.1 -0.1)">
       <defs>
        <path d="M 12.40625 8.296875 
L 28.515625 8.296875 
L 28.515625 63.921875 
L 10.984375 60.40625 
L 10.984375 69.390625 
L 28.421875 72.90625 
L 38.28125 72.90625 
L 38.28125 8.296875 
L 54.390625 8.296875 
L 54.390625 0 
L 12.40625 0 
z
" id="DejaVuSans-49"/>
       </defs>
       <use xlink:href="#DejaVuSans-8722"/>
       <use x="83.789062" xlink:href="#DejaVuSans-49"/>
       <use x="147.412109" xlink:href="#DejaVuSans-48"/>
       <use x="211.035156" xlink:href="#DejaVuSans-48"/>
      </g>
     </g>
    </g>
    <g id="xtick_4">
     <g id="line2d_7">
      <path clip-path="url(#p922c5a5420)" d="M 520.535467 526.2 
L 520.535467 27.8 
" style="fill:none;stroke:#b0b0b0;stroke-linecap:square;stroke-width:0.8;"/>
     </g>
     <g id="line2d_8">
      <g>
       <use style="stroke:#000000;stroke-width:0.8;" x="520.535467" xlink:href="#mb337289be0" y="526.2"/>
      </g>
     </g>
     <g id="text_4">
      <!-- 0 -->
      <g transform="translate(517.354217 540.798437)scale(0.1 -0.1)">
       <use xlink:href="#DejaVuSans-48"/>
      </g>
     </g>
    </g>
    <g id="xtick_5">
     <g id="line2d_9">
      <path clip-path="url(#p922c5a5420)" d="M 671.174374 526.2 
L 671.174374 27.8 
" style="fill:none;stroke:#b0b0b0;stroke-linecap:square;stroke-width:0.8;"/>
     </g>
     <g id="line2d_10">
      <g>
       <use style="stroke:#000000;stroke-width:0.8;" x="671.174374" xlink:href="#mb337289be0" y="526.2"/>
      </g>
     </g>
     <g id="text_5">
      <!-- 100 -->
      <g transform="translate(661.630624 540.798437)scale(0.1 -0.1)">
       <use xlink:href="#DejaVuSans-49"/>
       <use x="63.623047" xlink:href="#DejaVuSans-48"/>
       <use x="127.246094" xlink:href="#DejaVuSans-48"/>
      </g>
     </g>
    </g>
    <g id="xtick_6">
     <g id="line2d_11">
      <path clip-path="url(#p922c5a5420)" d="M 821.813281 526.2 
L 821.813281 27.8 
" style="fill:none;stroke:#b0b0b0;stroke-linecap:square;stroke-width:0.8;"/>
     </g>
     <g id="line2d_12">
      <g>
       <use style="stroke:#000000;stroke-width:0.8;" x="821.813281" xlink:href="#mb337289be0" y="526.2"/>
      </g>
     </g>
     <g id="text_6">
      <!-- 200 -->
      <g transform="translate(812.269531 540.798437)scale(0.1 -0.1)">
       <use xlink:href="#DejaVuSans-50"/>
       <use x="63.623047" xlink:href="#DejaVuSans-48"/>
       <use x="127.246094" xlink:href="#DejaVuSans-48"/>
      </g>
     </g>
    </g>
    <g id="xtick_7">
     <g id="line2d_13">
      <path clip-path="url(#p922c5a5420)" d="M 972.452188 526.2 
L 972.452188 27.8 
" style="fill:none;stroke:#b0b0b0;stroke-linecap:square;stroke-width:0.8;"/>
     </g>
     <g id="line2d_14">
      <g>
       <use style="stroke:#000000;stroke-width:0.8;" x="972.452188" xlink:href="#mb337289be0" y="526.2"/>
      </g>
     </g>
     <g id="text_7">
      <!-- 300 -->
      <g transform="translate(962.908438 540.798437)scale(0.1 -0.1)">
       <use xlink:href="#DejaVuSans-51"/>
       <use x="63.623047" xlink:href="#DejaVuSans-48"/>
       <use x="127.246094" xlink:href="#DejaVuSans-48"/>
      </g>
     </g>
    </g>
    <g id="text_8">
     <!-- 1st principal component -->
     <g transform="translate(422.874687 560.555313)scale(0.18 -0.18)">
      <defs>
       <path d="M 44.28125 53.078125 
L 44.28125 44.578125 
Q 40.484375 46.53125 36.375 47.5 
Q 32.28125 48.484375 27.875 48.484375 
Q 21.1875 48.484375 17.84375 46.4375 
Q 14.5 44.390625 14.5 40.28125 
Q 14.5 37.15625 16.890625 35.375 
Q 19.28125 33.59375 26.515625 31.984375 
L 29.59375 31.296875 
Q 39.15625 29.25 43.1875 25.515625 
Q 47.21875 21.78125 47.21875 15.09375 
Q 47.21875 7.46875 41.1875 3.015625 
Q 35.15625 -1.421875 24.609375 -1.421875 
Q 20.21875 -1.421875 15.453125 -0.5625 
Q 10.6875 0.296875 5.421875 2 
L 5.421875 11.28125 
Q 10.40625 8.6875 15.234375 7.390625 
Q 20.0625 6.109375 24.8125 6.109375 
Q 31.15625 6.109375 34.5625 8.28125 
Q 37.984375 10.453125 37.984375 14.40625 
Q 37.984375 18.0625 35.515625 20.015625 
Q 33.0625 21.96875 24.703125 23.78125 
L 21.578125 24.515625 
Q 13.234375 26.265625 9.515625 29.90625 
Q 5.8125 33.546875 5.8125 39.890625 
Q 5.8125 47.609375 11.28125 51.796875 
Q 16.75 56 26.8125 56 
Q 31.78125 56 36.171875 55.265625 
Q 40.578125 54.546875 44.28125 53.078125 
z
" id="DejaVuSans-115"/>
       <path d="M 18.3125 70.21875 
L 18.3125 54.6875 
L 36.8125 54.6875 
L 36.8125 47.703125 
L 18.3125 47.703125 
L 18.3125 18.015625 
Q 18.3125 11.328125 20.140625 9.421875 
Q 21.96875 7.515625 27.59375 7.515625 
L 36.8125 7.515625 
L 36.8125 0 
L 27.59375 0 
Q 17.1875 0 13.234375 3.875 
Q 9.28125 7.765625 9.28125 18.015625 
L 9.28125 47.703125 
L 2.6875 47.703125 
L 2.6875 54.6875 
L 9.28125 54.6875 
L 9.28125 70.21875 
z
" id="DejaVuSans-116"/>
       <path id="DejaVuSans-32"/>
       <path d="M 18.109375 8.203125 
L 18.109375 -20.796875 
L 9.078125 -20.796875 
L 9.078125 54.6875 
L 18.109375 54.6875 
L 18.109375 46.390625 
Q 20.953125 51.265625 25.265625 53.625 
Q 29.59375 56 35.59375 56 
Q 45.5625 56 51.78125 48.09375 
Q 58.015625 40.1875 58.015625 27.296875 
Q 58.015625 14.40625 51.78125 6.484375 
Q 45.5625 -1.421875 35.59375 -1.421875 
Q 29.59375 -1.421875 25.265625 0.953125 
Q 20.953125 3.328125 18.109375 8.203125 
z
M 48.6875 27.296875 
Q 48.6875 37.203125 44.609375 42.84375 
Q 40.53125 48.484375 33.40625 48.484375 
Q 26.265625 48.484375 22.1875 42.84375 
Q 18.109375 37.203125 18.109375 27.296875 
Q 18.109375 17.390625 22.1875 11.75 
Q 26.265625 6.109375 33.40625 6.109375 
Q 40.53125 6.109375 44.609375 11.75 
Q 48.6875 17.390625 48.6875 27.296875 
z
" id="DejaVuSans-112"/>
       <path d="M 41.109375 46.296875 
Q 39.59375 47.171875 37.8125 47.578125 
Q 36.03125 48 33.890625 48 
Q 26.265625 48 22.1875 43.046875 
Q 18.109375 38.09375 18.109375 28.8125 
L 18.109375 0 
L 9.078125 0 
L 9.078125 54.6875 
L 18.109375 54.6875 
L 18.109375 46.1875 
Q 20.953125 51.171875 25.484375 53.578125 
Q 30.03125 56 36.53125 56 
Q 37.453125 56 38.578125 55.875 
Q 39.703125 55.765625 41.0625 55.515625 
z
" id="DejaVuSans-114"/>
       <path d="M 9.421875 54.6875 
L 18.40625 54.6875 
L 18.40625 0 
L 9.421875 0 
z
M 9.421875 75.984375 
L 18.40625 75.984375 
L 18.40625 64.59375 
L 9.421875 64.59375 
z
" id="DejaVuSans-105"/>
       <path d="M 54.890625 33.015625 
L 54.890625 0 
L 45.90625 0 
L 45.90625 32.71875 
Q 45.90625 40.484375 42.875 44.328125 
Q 39.84375 48.1875 33.796875 48.1875 
Q 26.515625 48.1875 22.3125 43.546875 
Q 18.109375 38.921875 18.109375 30.90625 
L 18.109375 0 
L 9.078125 0 
L 9.078125 54.6875 
L 18.109375 54.6875 
L 18.109375 46.1875 
Q 21.34375 51.125 25.703125 53.5625 
Q 30.078125 56 35.796875 56 
Q 45.21875 56 50.046875 50.171875 
Q 54.890625 44.34375 54.890625 33.015625 
z
" id="DejaVuSans-110"/>
       <path d="M 48.78125 52.59375 
L 48.78125 44.1875 
Q 44.96875 46.296875 41.140625 47.34375 
Q 37.3125 48.390625 33.40625 48.390625 
Q 24.65625 48.390625 19.8125 42.84375 
Q 14.984375 37.3125 14.984375 27.296875 
Q 14.984375 17.28125 19.8125 11.734375 
Q 24.65625 6.203125 33.40625 6.203125 
Q 37.3125 6.203125 41.140625 7.25 
Q 44.96875 8.296875 48.78125 10.40625 
L 48.78125 2.09375 
Q 45.015625 0.34375 40.984375 -0.53125 
Q 36.96875 -1.421875 32.421875 -1.421875 
Q 20.0625 -1.421875 12.78125 6.34375 
Q 5.515625 14.109375 5.515625 27.296875 
Q 5.515625 40.671875 12.859375 48.328125 
Q 20.21875 56 33.015625 56 
Q 37.15625 56 41.109375 55.140625 
Q 45.0625 54.296875 48.78125 52.59375 
z
" id="DejaVuSans-99"/>
       <path d="M 34.28125 27.484375 
Q 23.390625 27.484375 19.1875 25 
Q 14.984375 22.515625 14.984375 16.5 
Q 14.984375 11.71875 18.140625 8.90625 
Q 21.296875 6.109375 26.703125 6.109375 
Q 34.1875 6.109375 38.703125 11.40625 
Q 43.21875 16.703125 43.21875 25.484375 
L 43.21875 27.484375 
z
M 52.203125 31.203125 
L 52.203125 0 
L 43.21875 0 
L 43.21875 8.296875 
Q 40.140625 3.328125 35.546875 0.953125 
Q 30.953125 -1.421875 24.3125 -1.421875 
Q 15.921875 -1.421875 10.953125 3.296875 
Q 6 8.015625 6 15.921875 
Q 6 25.140625 12.171875 29.828125 
Q 18.359375 34.515625 30.609375 34.515625 
L 43.21875 34.515625 
L 43.21875 35.40625 
Q 43.21875 41.609375 39.140625 45 
Q 35.0625 48.390625 27.6875 48.390625 
Q 23 48.390625 18.546875 47.265625 
Q 14.109375 46.140625 10.015625 43.890625 
L 10.015625 52.203125 
Q 14.9375 54.109375 19.578125 55.046875 
Q 24.21875 56 28.609375 56 
Q 40.484375 56 46.34375 49.84375 
Q 52.203125 43.703125 52.203125 31.203125 
z
" id="DejaVuSans-97"/>
       <path d="M 9.421875 75.984375 
L 18.40625 75.984375 
L 18.40625 0 
L 9.421875 0 
z
" id="DejaVuSans-108"/>
       <path d="M 30.609375 48.390625 
Q 23.390625 48.390625 19.1875 42.75 
Q 14.984375 37.109375 14.984375 27.296875 
Q 14.984375 17.484375 19.15625 11.84375 
Q 23.34375 6.203125 30.609375 6.203125 
Q 37.796875 6.203125 41.984375 11.859375 
Q 46.1875 17.53125 46.1875 27.296875 
Q 46.1875 37.015625 41.984375 42.703125 
Q 37.796875 48.390625 30.609375 48.390625 
z
M 30.609375 56 
Q 42.328125 56 49.015625 48.375 
Q 55.71875 40.765625 55.71875 27.296875 
Q 55.71875 13.875 49.015625 6.21875 
Q 42.328125 -1.421875 30.609375 -1.421875 
Q 18.84375 -1.421875 12.171875 6.21875 
Q 5.515625 13.875 5.515625 27.296875 
Q 5.515625 40.765625 12.171875 48.375 
Q 18.84375 56 30.609375 56 
z
" id="DejaVuSans-111"/>
       <path d="M 52 44.1875 
Q 55.375 50.25 60.0625 53.125 
Q 64.75 56 71.09375 56 
Q 79.640625 56 84.28125 50.015625 
Q 88.921875 44.046875 88.921875 33.015625 
L 88.921875 0 
L 79.890625 0 
L 79.890625 32.71875 
Q 79.890625 40.578125 77.09375 44.375 
Q 74.3125 48.1875 68.609375 48.1875 
Q 61.625 48.1875 57.5625 43.546875 
Q 53.515625 38.921875 53.515625 30.90625 
L 53.515625 0 
L 44.484375 0 
L 44.484375 32.71875 
Q 44.484375 40.625 41.703125 44.40625 
Q 38.921875 48.1875 33.109375 48.1875 
Q 26.21875 48.1875 22.15625 43.53125 
Q 18.109375 38.875 18.109375 30.90625 
L 18.109375 0 
L 9.078125 0 
L 9.078125 54.6875 
L 18.109375 54.6875 
L 18.109375 46.1875 
Q 21.1875 51.21875 25.484375 53.609375 
Q 29.78125 56 35.6875 56 
Q 41.65625 56 45.828125 52.96875 
Q 50 49.953125 52 44.1875 
z
" id="DejaVuSans-109"/>
       <path d="M 56.203125 29.59375 
L 56.203125 25.203125 
L 14.890625 25.203125 
Q 15.484375 15.921875 20.484375 11.0625 
Q 25.484375 6.203125 34.421875 6.203125 
Q 39.59375 6.203125 44.453125 7.46875 
Q 49.3125 8.734375 54.109375 11.28125 
L 54.109375 2.78125 
Q 49.265625 0.734375 44.1875 -0.34375 
Q 39.109375 -1.421875 33.890625 -1.421875 
Q 20.796875 -1.421875 13.15625 6.1875 
Q 5.515625 13.8125 5.515625 26.8125 
Q 5.515625 40.234375 12.765625 48.109375 
Q 20.015625 56 32.328125 56 
Q 43.359375 56 49.78125 48.890625 
Q 56.203125 41.796875 56.203125 29.59375 
z
M 47.21875 32.234375 
Q 47.125 39.59375 43.09375 43.984375 
Q 39.0625 48.390625 32.421875 48.390625 
Q 24.90625 48.390625 20.390625 44.140625 
Q 15.875 39.890625 15.1875 32.171875 
z
" id="DejaVuSans-101"/>
      </defs>
      <use xlink:href="#DejaVuSans-49"/>
      <use x="63.623047" xlink:href="#DejaVuSans-115"/>
      <use x="115.722656" xlink:href="#DejaVuSans-116"/>
      <use x="154.931641" xlink:href="#DejaVuSans-32"/>
      <use x="186.71875" xlink:href="#DejaVuSans-112"/>
      <use x="250.195312" xlink:href="#DejaVuSans-114"/>
      <use x="291.308594" xlink:href="#DejaVuSans-105"/>
      <use x="319.091797" xlink:href="#DejaVuSans-110"/>
      <use x="382.470703" xlink:href="#DejaVuSans-99"/>
      <use x="437.451172" xlink:href="#DejaVuSans-105"/>
      <use x="465.234375" xlink:href="#DejaVuSans-112"/>
      <use x="528.710938" xlink:href="#DejaVuSans-97"/>
      <use x="589.990234" xlink:href="#DejaVuSans-108"/>
      <use x="617.773438" xlink:href="#DejaVuSans-32"/>
      <use x="649.560547" xlink:href="#DejaVuSans-99"/>
      <use x="704.541016" xlink:href="#DejaVuSans-111"/>
      <use x="765.722656" xlink:href="#DejaVuSans-109"/>
      <use x="863.134766" xlink:href="#DejaVuSans-112"/>
      <use x="926.611328" xlink:href="#DejaVuSans-111"/>
      <use x="987.792969" xlink:href="#DejaVuSans-110"/>
      <use x="1051.171875" xlink:href="#DejaVuSans-101"/>
      <use x="1112.695312" xlink:href="#DejaVuSans-110"/>
      <use x="1176.074219" xlink:href="#DejaVuSans-116"/>
     </g>
    </g>
   </g>
   <g id="matplotlib.axis_2">
    <g id="ytick_1">
     <g id="line2d_15">
      <path clip-path="url(#p922c5a5420)" d="M 67.3 499.09637 
L 997.2 499.09637 
" style="fill:none;stroke:#b0b0b0;stroke-linecap:square;stroke-width:0.8;"/>
     </g>
     <g id="line2d_16">
      <defs>
       <path d="M 0 0 
L -3.5 0 
" id="m99905d48d7" style="stroke:#000000;stroke-width:0.8;"/>
      </defs>
      <g>
       <use style="stroke:#000000;stroke-width:0.8;" x="67.3" xlink:href="#m99905d48d7" y="499.09637"/>
      </g>
     </g>
     <g id="text_9">
      <!-- −300 -->
      <g transform="translate(32.832813 502.895589)scale(0.1 -0.1)">
       <use xlink:href="#DejaVuSans-8722"/>
       <use x="83.789062" xlink:href="#DejaVuSans-51"/>
       <use x="147.412109" xlink:href="#DejaVuSans-48"/>
       <use x="211.035156" xlink:href="#DejaVuSans-48"/>
      </g>
     </g>
    </g>
    <g id="ytick_2">
     <g id="line2d_17">
      <path clip-path="url(#p922c5a5420)" d="M 67.3 421.551844 
L 997.2 421.551844 
" style="fill:none;stroke:#b0b0b0;stroke-linecap:square;stroke-width:0.8;"/>
     </g>
     <g id="line2d_18">
      <g>
       <use style="stroke:#000000;stroke-width:0.8;" x="67.3" xlink:href="#m99905d48d7" y="421.551844"/>
      </g>
     </g>
     <g id="text_10">
      <!-- −200 -->
      <g transform="translate(32.832813 425.351062)scale(0.1 -0.1)">
       <use xlink:href="#DejaVuSans-8722"/>
       <use x="83.789062" xlink:href="#DejaVuSans-50"/>
       <use x="147.412109" xlink:href="#DejaVuSans-48"/>
       <use x="211.035156" xlink:href="#DejaVuSans-48"/>
      </g>
     </g>
    </g>
    <g id="ytick_3">
     <g id="line2d_19">
      <path clip-path="url(#p922c5a5420)" d="M 67.3 344.007317 
L 997.2 344.007317 
" style="fill:none;stroke:#b0b0b0;stroke-linecap:square;stroke-width:0.8;"/>
     </g>
     <g id="line2d_20">
      <g>
       <use style="stroke:#000000;stroke-width:0.8;" x="67.3" xlink:href="#m99905d48d7" y="344.007317"/>
      </g>
     </g>
     <g id="text_11">
      <!-- −100 -->
      <g transform="translate(32.832813 347.806536)scale(0.1 -0.1)">
       <use xlink:href="#DejaVuSans-8722"/>
       <use x="83.789062" xlink:href="#DejaVuSans-49"/>
       <use x="147.412109" xlink:href="#DejaVuSans-48"/>
       <use x="211.035156" xlink:href="#DejaVuSans-48"/>
      </g>
     </g>
    </g>
    <g id="ytick_4">
     <g id="line2d_21">
      <path clip-path="url(#p922c5a5420)" d="M 67.3 266.46279 
L 997.2 266.46279 
" style="fill:none;stroke:#b0b0b0;stroke-linecap:square;stroke-width:0.8;"/>
     </g>
     <g id="line2d_22">
      <g>
       <use style="stroke:#000000;stroke-width:0.8;" x="67.3" xlink:href="#m99905d48d7" y="266.46279"/>
      </g>
     </g>
     <g id="text_12">
      <!-- 0 -->
      <g transform="translate(53.9375 270.262009)scale(0.1 -0.1)">
       <use xlink:href="#DejaVuSans-48"/>
      </g>
     </g>
    </g>
    <g id="ytick_5">
     <g id="line2d_23">
      <path clip-path="url(#p922c5a5420)" d="M 67.3 188.918263 
L 997.2 188.918263 
" style="fill:none;stroke:#b0b0b0;stroke-linecap:square;stroke-width:0.8;"/>
     </g>
     <g id="line2d_24">
      <g>
       <use style="stroke:#000000;stroke-width:0.8;" x="67.3" xlink:href="#m99905d48d7" y="188.918263"/>
      </g>
     </g>
     <g id="text_13">
      <!-- 100 -->
      <g transform="translate(41.2125 192.717482)scale(0.1 -0.1)">
       <use xlink:href="#DejaVuSans-49"/>
       <use x="63.623047" xlink:href="#DejaVuSans-48"/>
       <use x="127.246094" xlink:href="#DejaVuSans-48"/>
      </g>
     </g>
    </g>
    <g id="ytick_6">
     <g id="line2d_25">
      <path clip-path="url(#p922c5a5420)" d="M 67.3 111.373737 
L 997.2 111.373737 
" style="fill:none;stroke:#b0b0b0;stroke-linecap:square;stroke-width:0.8;"/>
     </g>
     <g id="line2d_26">
      <g>
       <use style="stroke:#000000;stroke-width:0.8;" x="67.3" xlink:href="#m99905d48d7" y="111.373737"/>
      </g>
     </g>
     <g id="text_14">
      <!-- 200 -->
      <g transform="translate(41.2125 115.172956)scale(0.1 -0.1)">
       <use xlink:href="#DejaVuSans-50"/>
       <use x="63.623047" xlink:href="#DejaVuSans-48"/>
       <use x="127.246094" xlink:href="#DejaVuSans-48"/>
      </g>
     </g>
    </g>
    <g id="ytick_7">
     <g id="line2d_27">
      <path clip-path="url(#p922c5a5420)" d="M 67.3 33.82921 
L 997.2 33.82921 
" style="fill:none;stroke:#b0b0b0;stroke-linecap:square;stroke-width:0.8;"/>
     </g>
     <g id="line2d_28">
      <g>
       <use style="stroke:#000000;stroke-width:0.8;" x="67.3" xlink:href="#m99905d48d7" y="33.82921"/>
      </g>
     </g>
     <g id="text_15">
      <!-- 300 -->
      <g transform="translate(41.2125 37.628429)scale(0.1 -0.1)">
       <use xlink:href="#DejaVuSans-51"/>
       <use x="63.623047" xlink:href="#DejaVuSans-48"/>
       <use x="127.246094" xlink:href="#DejaVuSans-48"/>
      </g>
     </g>
    </g>
    <g id="text_16">
     <!-- 2nd principal component -->
     <g transform="translate(25.089375 389.575938)rotate(-90)scale(0.18 -0.18)">
      <defs>
       <path d="M 45.40625 46.390625 
L 45.40625 75.984375 
L 54.390625 75.984375 
L 54.390625 0 
L 45.40625 0 
L 45.40625 8.203125 
Q 42.578125 3.328125 38.25 0.953125 
Q 33.9375 -1.421875 27.875 -1.421875 
Q 17.96875 -1.421875 11.734375 6.484375 
Q 5.515625 14.40625 5.515625 27.296875 
Q 5.515625 40.1875 11.734375 48.09375 
Q 17.96875 56 27.875 56 
Q 33.9375 56 38.25 53.625 
Q 42.578125 51.265625 45.40625 46.390625 
z
M 14.796875 27.296875 
Q 14.796875 17.390625 18.875 11.75 
Q 22.953125 6.109375 30.078125 6.109375 
Q 37.203125 6.109375 41.296875 11.75 
Q 45.40625 17.390625 45.40625 27.296875 
Q 45.40625 37.203125 41.296875 42.84375 
Q 37.203125 48.484375 30.078125 48.484375 
Q 22.953125 48.484375 18.875 42.84375 
Q 14.796875 37.203125 14.796875 27.296875 
z
" id="DejaVuSans-100"/>
      </defs>
      <use xlink:href="#DejaVuSans-50"/>
      <use x="63.623047" xlink:href="#DejaVuSans-110"/>
      <use x="127.001953" xlink:href="#DejaVuSans-100"/>
      <use x="190.478516" xlink:href="#DejaVuSans-32"/>
      <use x="222.265625" xlink:href="#DejaVuSans-112"/>
      <use x="285.742188" xlink:href="#DejaVuSans-114"/>
      <use x="326.855469" xlink:href="#DejaVuSans-105"/>
      <use x="354.638672" xlink:href="#DejaVuSans-110"/>
      <use x="418.017578" xlink:href="#DejaVuSans-99"/>
      <use x="472.998047" xlink:href="#DejaVuSans-105"/>
      <use x="500.78125" xlink:href="#DejaVuSans-112"/>
      <use x="564.257812" xlink:href="#DejaVuSans-97"/>
      <use x="625.537109" xlink:href="#DejaVuSans-108"/>
      <use x="653.320312" xlink:href="#DejaVuSans-32"/>
      <use x="685.107422" xlink:href="#DejaVuSans-99"/>
      <use x="740.087891" xlink:href="#DejaVuSans-111"/>
      <use x="801.269531" xlink:href="#DejaVuSans-109"/>
      <use x="898.681641" xlink:href="#DejaVuSans-112"/>
      <use x="962.158203" xlink:href="#DejaVuSans-111"/>
      <use x="1023.339844" xlink:href="#DejaVuSans-110"/>
      <use x="1086.71875" xlink:href="#DejaVuSans-101"/>
      <use x="1148.242188" xlink:href="#DejaVuSans-110"/>
      <use x="1211.621094" xlink:href="#DejaVuSans-116"/>
     </g>
    </g>
   </g>
   <g id="patch_3">
    <path d="M 67.3 526.2 
L 67.3 27.8 
" style="fill:none;stroke:#000000;stroke-linecap:square;stroke-linejoin:miter;stroke-width:0.8;"/>
   </g>
   <g id="patch_4">
    <path d="M 997.2 526.2 
L 997.2 27.8 
" style="fill:none;stroke:#000000;stroke-linecap:square;stroke-linejoin:miter;stroke-width:0.8;"/>
   </g>
   <g id="patch_5">
    <path d="M 67.3 526.2 
L 997.2 526.2 
" style="fill:none;stroke:#000000;stroke-linecap:square;stroke-linejoin:miter;stroke-width:0.8;"/>
   </g>
   <g id="patch_6">
    <path d="M 67.3 27.8 
L 997.2 27.8 
" style="fill:none;stroke:#000000;stroke-linecap:square;stroke-linejoin:miter;stroke-width:0.8;"/>
   </g>
   <g id="text_17">
    <!-- 2D t-SNE projection of embeddings of utterances from several unseen speakers. Each embedding is colored by the speaker identity. -->
    <g transform="translate(69.056719 21.8)scale(0.14 -0.14)">
     <defs>
      <path d="M 19.671875 64.796875 
L 19.671875 8.109375 
L 31.59375 8.109375 
Q 46.6875 8.109375 53.6875 14.9375 
Q 60.6875 21.78125 60.6875 36.53125 
Q 60.6875 51.171875 53.6875 57.984375 
Q 46.6875 64.796875 31.59375 64.796875 
z
M 9.8125 72.90625 
L 30.078125 72.90625 
Q 51.265625 72.90625 61.171875 64.09375 
Q 71.09375 55.28125 71.09375 36.53125 
Q 71.09375 17.671875 61.125 8.828125 
Q 51.171875 0 30.078125 0 
L 9.8125 0 
z
" id="DejaVuSans-68"/>
      <path d="M 4.890625 31.390625 
L 31.203125 31.390625 
L 31.203125 23.390625 
L 4.890625 23.390625 
z
" id="DejaVuSans-45"/>
      <path d="M 53.515625 70.515625 
L 53.515625 60.890625 
Q 47.90625 63.578125 42.921875 64.890625 
Q 37.9375 66.21875 33.296875 66.21875 
Q 25.25 66.21875 20.875 63.09375 
Q 16.5 59.96875 16.5 54.203125 
Q 16.5 49.359375 19.40625 46.890625 
Q 22.3125 44.4375 30.421875 42.921875 
L 36.375 41.703125 
Q 47.40625 39.59375 52.65625 34.296875 
Q 57.90625 29 57.90625 20.125 
Q 57.90625 9.515625 50.796875 4.046875 
Q 43.703125 -1.421875 29.984375 -1.421875 
Q 24.8125 -1.421875 18.96875 -0.25 
Q 13.140625 0.921875 6.890625 3.21875 
L 6.890625 13.375 
Q 12.890625 10.015625 18.65625 8.296875 
Q 24.421875 6.59375 29.984375 6.59375 
Q 38.421875 6.59375 43.015625 9.90625 
Q 47.609375 13.234375 47.609375 19.390625 
Q 47.609375 24.75 44.3125 27.78125 
Q 41.015625 30.8125 33.5 32.328125 
L 27.484375 33.5 
Q 16.453125 35.6875 11.515625 40.375 
Q 6.59375 45.0625 6.59375 53.421875 
Q 6.59375 63.09375 13.40625 68.65625 
Q 20.21875 74.21875 32.171875 74.21875 
Q 37.3125 74.21875 42.625 73.28125 
Q 47.953125 72.359375 53.515625 70.515625 
z
" id="DejaVuSans-83"/>
      <path d="M 9.8125 72.90625 
L 23.09375 72.90625 
L 55.421875 11.921875 
L 55.421875 72.90625 
L 64.984375 72.90625 
L 64.984375 0 
L 51.703125 0 
L 19.390625 60.984375 
L 19.390625 0 
L 9.8125 0 
z
" id="DejaVuSans-78"/>
      <path d="M 9.8125 72.90625 
L 55.90625 72.90625 
L 55.90625 64.59375 
L 19.671875 64.59375 
L 19.671875 43.015625 
L 54.390625 43.015625 
L 54.390625 34.71875 
L 19.671875 34.71875 
L 19.671875 8.296875 
L 56.78125 8.296875 
L 56.78125 0 
L 9.8125 0 
z
" id="DejaVuSans-69"/>
      <path d="M 9.421875 54.6875 
L 18.40625 54.6875 
L 18.40625 -0.984375 
Q 18.40625 -11.421875 14.421875 -16.109375 
Q 10.453125 -20.796875 1.609375 -20.796875 
L -1.8125 -20.796875 
L -1.8125 -13.1875 
L 0.59375 -13.1875 
Q 5.71875 -13.1875 7.5625 -10.8125 
Q 9.421875 -8.453125 9.421875 -0.984375 
z
M 9.421875 75.984375 
L 18.40625 75.984375 
L 18.40625 64.59375 
L 9.421875 64.59375 
z
" id="DejaVuSans-106"/>
      <path d="M 37.109375 75.984375 
L 37.109375 68.5 
L 28.515625 68.5 
Q 23.6875 68.5 21.796875 66.546875 
Q 19.921875 64.59375 19.921875 59.515625 
L 19.921875 54.6875 
L 34.71875 54.6875 
L 34.71875 47.703125 
L 19.921875 47.703125 
L 19.921875 0 
L 10.890625 0 
L 10.890625 47.703125 
L 2.296875 47.703125 
L 2.296875 54.6875 
L 10.890625 54.6875 
L 10.890625 58.5 
Q 10.890625 67.625 15.140625 71.796875 
Q 19.390625 75.984375 28.609375 75.984375 
z
" id="DejaVuSans-102"/>
      <path d="M 48.6875 27.296875 
Q 48.6875 37.203125 44.609375 42.84375 
Q 40.53125 48.484375 33.40625 48.484375 
Q 26.265625 48.484375 22.1875 42.84375 
Q 18.109375 37.203125 18.109375 27.296875 
Q 18.109375 17.390625 22.1875 11.75 
Q 26.265625 6.109375 33.40625 6.109375 
Q 40.53125 6.109375 44.609375 11.75 
Q 48.6875 17.390625 48.6875 27.296875 
z
M 18.109375 46.390625 
Q 20.953125 51.265625 25.265625 53.625 
Q 29.59375 56 35.59375 56 
Q 45.5625 56 51.78125 48.09375 
Q 58.015625 40.1875 58.015625 27.296875 
Q 58.015625 14.40625 51.78125 6.484375 
Q 45.5625 -1.421875 35.59375 -1.421875 
Q 29.59375 -1.421875 25.265625 0.953125 
Q 20.953125 3.328125 18.109375 8.203125 
L 18.109375 0 
L 9.078125 0 
L 9.078125 75.984375 
L 18.109375 75.984375 
z
" id="DejaVuSans-98"/>
      <path d="M 45.40625 27.984375 
Q 45.40625 37.75 41.375 43.109375 
Q 37.359375 48.484375 30.078125 48.484375 
Q 22.859375 48.484375 18.828125 43.109375 
Q 14.796875 37.75 14.796875 27.984375 
Q 14.796875 18.265625 18.828125 12.890625 
Q 22.859375 7.515625 30.078125 7.515625 
Q 37.359375 7.515625 41.375 12.890625 
Q 45.40625 18.265625 45.40625 27.984375 
z
M 54.390625 6.78125 
Q 54.390625 -7.171875 48.1875 -13.984375 
Q 42 -20.796875 29.203125 -20.796875 
Q 24.46875 -20.796875 20.265625 -20.09375 
Q 16.0625 -19.390625 12.109375 -17.921875 
L 12.109375 -9.1875 
Q 16.0625 -11.328125 19.921875 -12.34375 
Q 23.78125 -13.375 27.78125 -13.375 
Q 36.625 -13.375 41.015625 -8.765625 
Q 45.40625 -4.15625 45.40625 5.171875 
L 45.40625 9.625 
Q 42.625 4.78125 38.28125 2.390625 
Q 33.9375 0 27.875 0 
Q 17.828125 0 11.671875 7.65625 
Q 5.515625 15.328125 5.515625 27.984375 
Q 5.515625 40.671875 11.671875 48.328125 
Q 17.828125 56 27.875 56 
Q 33.9375 56 38.28125 53.609375 
Q 42.625 51.21875 45.40625 46.390625 
L 45.40625 54.6875 
L 54.390625 54.6875 
z
" id="DejaVuSans-103"/>
      <path d="M 8.5 21.578125 
L 8.5 54.6875 
L 17.484375 54.6875 
L 17.484375 21.921875 
Q 17.484375 14.15625 20.5 10.265625 
Q 23.53125 6.390625 29.59375 6.390625 
Q 36.859375 6.390625 41.078125 11.03125 
Q 45.3125 15.671875 45.3125 23.6875 
L 45.3125 54.6875 
L 54.296875 54.6875 
L 54.296875 0 
L 45.3125 0 
L 45.3125 8.40625 
Q 42.046875 3.421875 37.71875 1 
Q 33.40625 -1.421875 27.6875 -1.421875 
Q 18.265625 -1.421875 13.375 4.4375 
Q 8.5 10.296875 8.5 21.578125 
z
M 31.109375 56 
z
" id="DejaVuSans-117"/>
      <path d="M 2.984375 54.6875 
L 12.5 54.6875 
L 29.59375 8.796875 
L 46.6875 54.6875 
L 56.203125 54.6875 
L 35.6875 0 
L 23.484375 0 
z
" id="DejaVuSans-118"/>
      <path d="M 9.078125 75.984375 
L 18.109375 75.984375 
L 18.109375 31.109375 
L 44.921875 54.6875 
L 56.390625 54.6875 
L 27.390625 29.109375 
L 57.625 0 
L 45.90625 0 
L 18.109375 26.703125 
L 18.109375 0 
L 9.078125 0 
z
" id="DejaVuSans-107"/>
      <path d="M 10.6875 12.40625 
L 21 12.40625 
L 21 0 
L 10.6875 0 
z
" id="DejaVuSans-46"/>
      <path d="M 54.890625 33.015625 
L 54.890625 0 
L 45.90625 0 
L 45.90625 32.71875 
Q 45.90625 40.484375 42.875 44.328125 
Q 39.84375 48.1875 33.796875 48.1875 
Q 26.515625 48.1875 22.3125 43.546875 
Q 18.109375 38.921875 18.109375 30.90625 
L 18.109375 0 
L 9.078125 0 
L 9.078125 75.984375 
L 18.109375 75.984375 
L 18.109375 46.1875 
Q 21.34375 51.125 25.703125 53.5625 
Q 30.078125 56 35.796875 56 
Q 45.21875 56 50.046875 50.171875 
Q 54.890625 44.34375 54.890625 33.015625 
z
" id="DejaVuSans-104"/>
      <path d="M 32.171875 -5.078125 
Q 28.375 -14.84375 24.75 -17.8125 
Q 21.140625 -20.796875 15.09375 -20.796875 
L 7.90625 -20.796875 
L 7.90625 -13.28125 
L 13.1875 -13.28125 
Q 16.890625 -13.28125 18.9375 -11.515625 
Q 21 -9.765625 23.484375 -3.21875 
L 25.09375 0.875 
L 2.984375 54.6875 
L 12.5 54.6875 
L 29.59375 11.921875 
L 46.6875 54.6875 
L 56.203125 54.6875 
z
" id="DejaVuSans-121"/>
     </defs>
     <use xlink:href="#DejaVuSans-50"/>
     <use x="63.623047" xlink:href="#DejaVuSans-68"/>
     <use x="140.625" xlink:href="#DejaVuSans-32"/>
     <use x="172.412109" xlink:href="#DejaVuSans-116"/>
     <use x="211.621094" xlink:href="#DejaVuSans-45"/>
     <use x="247.705078" xlink:href="#DejaVuSans-83"/>
     <use x="311.181641" xlink:href="#DejaVuSans-78"/>
     <use x="385.986328" xlink:href="#DejaVuSans-69"/>
     <use x="449.169922" xlink:href="#DejaVuSans-32"/>
     <use x="480.957031" xlink:href="#DejaVuSans-112"/>
     <use x="544.433594" xlink:href="#DejaVuSans-114"/>
     <use x="583.296875" xlink:href="#DejaVuSans-111"/>
     <use x="644.478516" xlink:href="#DejaVuSans-106"/>
     <use x="672.261719" xlink:href="#DejaVuSans-101"/>
     <use x="733.785156" xlink:href="#DejaVuSans-99"/>
     <use x="788.765625" xlink:href="#DejaVuSans-116"/>
     <use x="827.974609" xlink:href="#DejaVuSans-105"/>
     <use x="855.757812" xlink:href="#DejaVuSans-111"/>
     <use x="916.939453" xlink:href="#DejaVuSans-110"/>
     <use x="980.318359" xlink:href="#DejaVuSans-32"/>
     <use x="1012.105469" xlink:href="#DejaVuSans-111"/>
     <use x="1073.287109" xlink:href="#DejaVuSans-102"/>
     <use x="1108.492188" xlink:href="#DejaVuSans-32"/>
     <use x="1140.279297" xlink:href="#DejaVuSans-101"/>
     <use x="1201.802734" xlink:href="#DejaVuSans-109"/>
     <use x="1299.214844" xlink:href="#DejaVuSans-98"/>
     <use x="1362.691406" xlink:href="#DejaVuSans-101"/>
     <use x="1424.214844" xlink:href="#DejaVuSans-100"/>
     <use x="1487.691406" xlink:href="#DejaVuSans-100"/>
     <use x="1551.167969" xlink:href="#DejaVuSans-105"/>
     <use x="1578.951172" xlink:href="#DejaVuSans-110"/>
     <use x="1642.330078" xlink:href="#DejaVuSans-103"/>
     <use x="1705.806641" xlink:href="#DejaVuSans-115"/>
     <use x="1757.90625" xlink:href="#DejaVuSans-32"/>
     <use x="1789.693359" xlink:href="#DejaVuSans-111"/>
     <use x="1850.875" xlink:href="#DejaVuSans-102"/>
     <use x="1886.080078" xlink:href="#DejaVuSans-32"/>
     <use x="1917.867188" xlink:href="#DejaVuSans-117"/>
     <use x="1981.246094" xlink:href="#DejaVuSans-116"/>
     <use x="2020.455078" xlink:href="#DejaVuSans-116"/>
     <use x="2059.664062" xlink:href="#DejaVuSans-101"/>
     <use x="2121.1875" xlink:href="#DejaVuSans-114"/>
     <use x="2162.300781" xlink:href="#DejaVuSans-97"/>
     <use x="2223.580078" xlink:href="#DejaVuSans-110"/>
     <use x="2286.958984" xlink:href="#DejaVuSans-99"/>
     <use x="2341.939453" xlink:href="#DejaVuSans-101"/>
     <use x="2403.462891" xlink:href="#DejaVuSans-115"/>
     <use x="2455.5625" xlink:href="#DejaVuSans-32"/>
     <use x="2487.349609" xlink:href="#DejaVuSans-102"/>
     <use x="2522.554688" xlink:href="#DejaVuSans-114"/>
     <use x="2561.417969" xlink:href="#DejaVuSans-111"/>
     <use x="2622.599609" xlink:href="#DejaVuSans-109"/>
     <use x="2720.011719" xlink:href="#DejaVuSans-32"/>
     <use x="2751.798828" xlink:href="#DejaVuSans-115"/>
     <use x="2803.898438" xlink:href="#DejaVuSans-101"/>
     <use x="2865.421875" xlink:href="#DejaVuSans-118"/>
     <use x="2924.601562" xlink:href="#DejaVuSans-101"/>
     <use x="2986.125" xlink:href="#DejaVuSans-114"/>
     <use x="3027.238281" xlink:href="#DejaVuSans-97"/>
     <use x="3088.517578" xlink:href="#DejaVuSans-108"/>
     <use x="3116.300781" xlink:href="#DejaVuSans-32"/>
     <use x="3148.087891" xlink:href="#DejaVuSans-117"/>
     <use x="3211.466797" xlink:href="#DejaVuSans-110"/>
     <use x="3274.845703" xlink:href="#DejaVuSans-115"/>
     <use x="3326.945312" xlink:href="#DejaVuSans-101"/>
     <use x="3388.46875" xlink:href="#DejaVuSans-101"/>
     <use x="3449.992188" xlink:href="#DejaVuSans-110"/>
     <use x="3513.371094" xlink:href="#DejaVuSans-32"/>
     <use x="3545.158203" xlink:href="#DejaVuSans-115"/>
     <use x="3597.257812" xlink:href="#DejaVuSans-112"/>
     <use x="3660.734375" xlink:href="#DejaVuSans-101"/>
     <use x="3722.257812" xlink:href="#DejaVuSans-97"/>
     <use x="3783.537109" xlink:href="#DejaVuSans-107"/>
     <use x="3837.822266" xlink:href="#DejaVuSans-101"/>
     <use x="3899.345703" xlink:href="#DejaVuSans-114"/>
     <use x="3940.458984" xlink:href="#DejaVuSans-115"/>
     <use x="3992.558594" xlink:href="#DejaVuSans-46"/>
     <use x="4024.345703" xlink:href="#DejaVuSans-32"/>
     <use x="4056.132812" xlink:href="#DejaVuSans-69"/>
     <use x="4119.316406" xlink:href="#DejaVuSans-97"/>
     <use x="4180.595703" xlink:href="#DejaVuSans-99"/>
     <use x="4235.576172" xlink:href="#DejaVuSans-104"/>
     <use x="4298.955078" xlink:href="#DejaVuSans-32"/>
     <use x="4330.742188" xlink:href="#DejaVuSans-101"/>
     <use x="4392.265625" xlink:href="#DejaVuSans-109"/>
     <use x="4489.677734" xlink:href="#DejaVuSans-98"/>
     <use x="4553.154297" xlink:href="#DejaVuSans-101"/>
     <use x="4614.677734" xlink:href="#DejaVuSans-100"/>
     <use x="4678.154297" xlink:href="#DejaVuSans-100"/>
     <use x="4741.630859" xlink:href="#DejaVuSans-105"/>
     <use x="4769.414062" xlink:href="#DejaVuSans-110"/>
     <use x="4832.792969" xlink:href="#DejaVuSans-103"/>
     <use x="4896.269531" xlink:href="#DejaVuSans-32"/>
     <use x="4928.056641" xlink:href="#DejaVuSans-105"/>
     <use x="4955.839844" xlink:href="#DejaVuSans-115"/>
     <use x="5007.939453" xlink:href="#DejaVuSans-32"/>
     <use x="5039.726562" xlink:href="#DejaVuSans-99"/>
     <use x="5094.707031" xlink:href="#DejaVuSans-111"/>
     <use x="5155.888672" xlink:href="#DejaVuSans-108"/>
     <use x="5183.671875" xlink:href="#DejaVuSans-111"/>
     <use x="5244.853516" xlink:href="#DejaVuSans-114"/>
     <use x="5283.716797" xlink:href="#DejaVuSans-101"/>
     <use x="5345.240234" xlink:href="#DejaVuSans-100"/>
     <use x="5408.716797" xlink:href="#DejaVuSans-32"/>
     <use x="5440.503906" xlink:href="#DejaVuSans-98"/>
     <use x="5503.980469" xlink:href="#DejaVuSans-121"/>
     <use x="5563.160156" xlink:href="#DejaVuSans-32"/>
     <use x="5594.947266" xlink:href="#DejaVuSans-116"/>
     <use x="5634.15625" xlink:href="#DejaVuSans-104"/>
     <use x="5697.535156" xlink:href="#DejaVuSans-101"/>
     <use x="5759.058594" xlink:href="#DejaVuSans-32"/>
     <use x="5790.845703" xlink:href="#DejaVuSans-115"/>
     <use x="5842.945312" xlink:href="#DejaVuSans-112"/>
     <use x="5906.421875" xlink:href="#DejaVuSans-101"/>
     <use x="5967.945312" xlink:href="#DejaVuSans-97"/>
     <use x="6029.224609" xlink:href="#DejaVuSans-107"/>
     <use x="6083.509766" xlink:href="#DejaVuSans-101"/>
     <use x="6145.033203" xlink:href="#DejaVuSans-114"/>
     <use x="6186.146484" xlink:href="#DejaVuSans-32"/>
     <use x="6217.933594" xlink:href="#DejaVuSans-105"/>
     <use x="6245.716797" xlink:href="#DejaVuSans-100"/>
     <use x="6309.193359" xlink:href="#DejaVuSans-101"/>
     <use x="6370.716797" xlink:href="#DejaVuSans-110"/>
     <use x="6434.095703" xlink:href="#DejaVuSans-116"/>
     <use x="6473.304688" xlink:href="#DejaVuSans-105"/>
     <use x="6501.087891" xlink:href="#DejaVuSans-116"/>
     <use x="6540.296875" xlink:href="#DejaVuSans-121"/>
     <use x="6585.226562" xlink:href="#DejaVuSans-46"/>
    </g>
   </g>
   <g id="legend_1">
    <g id="patch_7">
     <path d="M 883.43125 153.225 
L 990.2 153.225 
Q 992.2 153.225 992.2 151.225 
L 992.2 34.8 
Q 992.2 32.8 990.2 32.8 
L 883.43125 32.8 
Q 881.43125 32.8 881.43125 34.8 
L 881.43125 151.225 
Q 881.43125 153.225 883.43125 153.225 
z
" style="fill:#ffffff;opacity:0.8;stroke:#cccccc;stroke-linejoin:miter;"/>
    </g>
    <g id="PathCollection_9">
     <g>
      <use style="fill:#1f77b4;stroke:#1f77b4;" x="895.43125" xlink:href="#mfa745c23f7" y="41.773437"/>
     </g>
    </g>
    <g id="text_18">
     <!-- cv-3506-5c4b -->
     <g transform="translate(913.43125 44.398437)scale(0.1 -0.1)">
      <defs>
       <path d="M 10.796875 72.90625 
L 49.515625 72.90625 
L 49.515625 64.59375 
L 19.828125 64.59375 
L 19.828125 46.734375 
Q 21.96875 47.46875 24.109375 47.828125 
Q 26.265625 48.1875 28.421875 48.1875 
Q 40.625 48.1875 47.75 41.5 
Q 54.890625 34.8125 54.890625 23.390625 
Q 54.890625 11.625 47.5625 5.09375 
Q 40.234375 -1.421875 26.90625 -1.421875 
Q 22.3125 -1.421875 17.546875 -0.640625 
Q 12.796875 0.140625 7.71875 1.703125 
L 7.71875 11.625 
Q 12.109375 9.234375 16.796875 8.0625 
Q 21.484375 6.890625 26.703125 6.890625 
Q 35.15625 6.890625 40.078125 11.328125 
Q 45.015625 15.765625 45.015625 23.390625 
Q 45.015625 31 40.078125 35.4375 
Q 35.15625 39.890625 26.703125 39.890625 
Q 22.75 39.890625 18.8125 39.015625 
Q 14.890625 38.140625 10.796875 36.28125 
z
" id="DejaVuSans-53"/>
       <path d="M 33.015625 40.375 
Q 26.375 40.375 22.484375 35.828125 
Q 18.609375 31.296875 18.609375 23.390625 
Q 18.609375 15.53125 22.484375 10.953125 
Q 26.375 6.390625 33.015625 6.390625 
Q 39.65625 6.390625 43.53125 10.953125 
Q 47.40625 15.53125 47.40625 23.390625 
Q 47.40625 31.296875 43.53125 35.828125 
Q 39.65625 40.375 33.015625 40.375 
z
M 52.59375 71.296875 
L 52.59375 62.3125 
Q 48.875 64.0625 45.09375 64.984375 
Q 41.3125 65.921875 37.59375 65.921875 
Q 27.828125 65.921875 22.671875 59.328125 
Q 17.53125 52.734375 16.796875 39.40625 
Q 19.671875 43.65625 24.015625 45.921875 
Q 28.375 48.1875 33.59375 48.1875 
Q 44.578125 48.1875 50.953125 41.515625 
Q 57.328125 34.859375 57.328125 23.390625 
Q 57.328125 12.15625 50.6875 5.359375 
Q 44.046875 -1.421875 33.015625 -1.421875 
Q 20.359375 -1.421875 13.671875 8.265625 
Q 6.984375 17.96875 6.984375 36.375 
Q 6.984375 53.65625 15.1875 63.9375 
Q 23.390625 74.21875 37.203125 74.21875 
Q 40.921875 74.21875 44.703125 73.484375 
Q 48.484375 72.75 52.59375 71.296875 
z
" id="DejaVuSans-54"/>
       <path d="M 37.796875 64.3125 
L 12.890625 25.390625 
L 37.796875 25.390625 
z
M 35.203125 72.90625 
L 47.609375 72.90625 
L 47.609375 25.390625 
L 58.015625 25.390625 
L 58.015625 17.1875 
L 47.609375 17.1875 
L 47.609375 0 
L 37.796875 0 
L 37.796875 17.1875 
L 4.890625 17.1875 
L 4.890625 26.703125 
z
" id="DejaVuSans-52"/>
      </defs>
      <use xlink:href="#DejaVuSans-99"/>
      <use x="54.980469" xlink:href="#DejaVuSans-118"/>
      <use x="111.535156" xlink:href="#DejaVuSans-45"/>
      <use x="147.619141" xlink:href="#DejaVuSans-51"/>
      <use x="211.242188" xlink:href="#DejaVuSans-53"/>
      <use x="274.865234" xlink:href="#DejaVuSans-48"/>
      <use x="338.488281" xlink:href="#DejaVuSans-54"/>
      <use x="402.111328" xlink:href="#DejaVuSans-45"/>
      <use x="438.195312" xlink:href="#DejaVuSans-53"/>
      <use x="501.818359" xlink:href="#DejaVuSans-99"/>
      <use x="556.798828" xlink:href="#DejaVuSans-52"/>
      <use x="620.421875" xlink:href="#DejaVuSans-98"/>
     </g>
    </g>
    <g id="PathCollection_10">
     <g>
      <use style="fill:#ff7f0e;stroke:#ff7f0e;" x="895.43125" xlink:href="#me3a77bead1" y="56.451562"/>
     </g>
    </g>
    <g id="text_19">
     <!-- cv-3641-2681 -->
     <g transform="translate(913.43125 59.076562)scale(0.1 -0.1)">
      <defs>
       <path d="M 31.78125 34.625 
Q 24.75 34.625 20.71875 30.859375 
Q 16.703125 27.09375 16.703125 20.515625 
Q 16.703125 13.921875 20.71875 10.15625 
Q 24.75 6.390625 31.78125 6.390625 
Q 38.8125 6.390625 42.859375 10.171875 
Q 46.921875 13.96875 46.921875 20.515625 
Q 46.921875 27.09375 42.890625 30.859375 
Q 38.875 34.625 31.78125 34.625 
z
M 21.921875 38.8125 
Q 15.578125 40.375 12.03125 44.71875 
Q 8.5 49.078125 8.5 55.328125 
Q 8.5 64.0625 14.71875 69.140625 
Q 20.953125 74.21875 31.78125 74.21875 
Q 42.671875 74.21875 48.875 69.140625 
Q 55.078125 64.0625 55.078125 55.328125 
Q 55.078125 49.078125 51.53125 44.71875 
Q 48 40.375 41.703125 38.8125 
Q 48.828125 37.15625 52.796875 32.3125 
Q 56.78125 27.484375 56.78125 20.515625 
Q 56.78125 9.90625 50.3125 4.234375 
Q 43.84375 -1.421875 31.78125 -1.421875 
Q 19.734375 -1.421875 13.25 4.234375 
Q 6.78125 9.90625 6.78125 20.515625 
Q 6.78125 27.484375 10.78125 32.3125 
Q 14.796875 37.15625 21.921875 38.8125 
z
M 18.3125 54.390625 
Q 18.3125 48.734375 21.84375 45.5625 
Q 25.390625 42.390625 31.78125 42.390625 
Q 38.140625 42.390625 41.71875 45.5625 
Q 45.3125 48.734375 45.3125 54.390625 
Q 45.3125 60.0625 41.71875 63.234375 
Q 38.140625 66.40625 31.78125 66.40625 
Q 25.390625 66.40625 21.84375 63.234375 
Q 18.3125 60.0625 18.3125 54.390625 
z
" id="DejaVuSans-56"/>
      </defs>
      <use xlink:href="#DejaVuSans-99"/>
      <use x="54.980469" xlink:href="#DejaVuSans-118"/>
      <use x="111.535156" xlink:href="#DejaVuSans-45"/>
      <use x="147.619141" xlink:href="#DejaVuSans-51"/>
      <use x="211.242188" xlink:href="#DejaVuSans-54"/>
      <use x="274.865234" xlink:href="#DejaVuSans-52"/>
      <use x="338.488281" xlink:href="#DejaVuSans-49"/>
      <use x="402.111328" xlink:href="#DejaVuSans-45"/>
      <use x="438.195312" xlink:href="#DejaVuSans-50"/>
      <use x="501.818359" xlink:href="#DejaVuSans-54"/>
      <use x="565.441406" xlink:href="#DejaVuSans-56"/>
      <use x="629.064453" xlink:href="#DejaVuSans-49"/>
     </g>
    </g>
    <g id="PathCollection_11">
     <g>
      <use style="fill:#2ca02c;stroke:#2ca02c;" x="895.43125" xlink:href="#mdb9001760f" y="71.129687"/>
     </g>
    </g>
    <g id="text_20">
     <!-- cv-14979-908c -->
     <g transform="translate(913.43125 73.754687)scale(0.1 -0.1)">
      <defs>
       <path d="M 10.984375 1.515625 
L 10.984375 10.5 
Q 14.703125 8.734375 18.5 7.8125 
Q 22.3125 6.890625 25.984375 6.890625 
Q 35.75 6.890625 40.890625 13.453125 
Q 46.046875 20.015625 46.78125 33.40625 
Q 43.953125 29.203125 39.59375 26.953125 
Q 35.25 24.703125 29.984375 24.703125 
Q 19.046875 24.703125 12.671875 31.3125 
Q 6.296875 37.9375 6.296875 49.421875 
Q 6.296875 60.640625 12.9375 67.421875 
Q 19.578125 74.21875 30.609375 74.21875 
Q 43.265625 74.21875 49.921875 64.515625 
Q 56.59375 54.828125 56.59375 36.375 
Q 56.59375 19.140625 48.40625 8.859375 
Q 40.234375 -1.421875 26.421875 -1.421875 
Q 22.703125 -1.421875 18.890625 -0.6875 
Q 15.09375 0.046875 10.984375 1.515625 
z
M 30.609375 32.421875 
Q 37.25 32.421875 41.125 36.953125 
Q 45.015625 41.5 45.015625 49.421875 
Q 45.015625 57.28125 41.125 61.84375 
Q 37.25 66.40625 30.609375 66.40625 
Q 23.96875 66.40625 20.09375 61.84375 
Q 16.21875 57.28125 16.21875 49.421875 
Q 16.21875 41.5 20.09375 36.953125 
Q 23.96875 32.421875 30.609375 32.421875 
z
" id="DejaVuSans-57"/>
       <path d="M 8.203125 72.90625 
L 55.078125 72.90625 
L 55.078125 68.703125 
L 28.609375 0 
L 18.3125 0 
L 43.21875 64.59375 
L 8.203125 64.59375 
z
" id="DejaVuSans-55"/>
      </defs>
      <use xlink:href="#DejaVuSans-99"/>
      <use x="54.980469" xlink:href="#DejaVuSans-118"/>
      <use x="111.535156" xlink:href="#DejaVuSans-45"/>
      <use x="147.619141" xlink:href="#DejaVuSans-49"/>
      <use x="211.242188" xlink:href="#DejaVuSans-52"/>
      <use x="274.865234" xlink:href="#DejaVuSans-57"/>
      <use x="338.488281" xlink:href="#DejaVuSans-55"/>
      <use x="402.111328" xlink:href="#DejaVuSans-57"/>
      <use x="465.734375" xlink:href="#DejaVuSans-45"/>
      <use x="501.818359" xlink:href="#DejaVuSans-57"/>
      <use x="565.441406" xlink:href="#DejaVuSans-48"/>
      <use x="629.064453" xlink:href="#DejaVuSans-56"/>
      <use x="692.6875" xlink:href="#DejaVuSans-99"/>
     </g>
    </g>
    <g id="PathCollection_12">
     <g>
      <use style="fill:#d62728;stroke:#d62728;" x="895.43125" xlink:href="#md831d49a0c" y="85.807812"/>
     </g>
    </g>
    <g id="text_21">
     <!-- cv-1220-9c5c -->
     <g transform="translate(913.43125 88.432812)scale(0.1 -0.1)">
      <use xlink:href="#DejaVuSans-99"/>
      <use x="54.980469" xlink:href="#DejaVuSans-118"/>
      <use x="111.535156" xlink:href="#DejaVuSans-45"/>
      <use x="147.619141" xlink:href="#DejaVuSans-49"/>
      <use x="211.242188" xlink:href="#DejaVuSans-50"/>
      <use x="274.865234" xlink:href="#DejaVuSans-50"/>
      <use x="338.488281" xlink:href="#DejaVuSans-48"/>
      <use x="402.111328" xlink:href="#DejaVuSans-45"/>
      <use x="438.195312" xlink:href="#DejaVuSans-57"/>
      <use x="501.818359" xlink:href="#DejaVuSans-99"/>
      <use x="556.798828" xlink:href="#DejaVuSans-53"/>
      <use x="620.421875" xlink:href="#DejaVuSans-99"/>
     </g>
    </g>
    <g id="PathCollection_13">
     <g>
      <use style="fill:#9467bd;stroke:#9467bd;" x="895.43125" xlink:href="#m14ff0e8059" y="100.485937"/>
     </g>
    </g>
    <g id="text_22">
     <!-- cv-15164-253f -->
     <g transform="translate(913.43125 103.110937)scale(0.1 -0.1)">
      <use xlink:href="#DejaVuSans-99"/>
      <use x="54.980469" xlink:href="#DejaVuSans-118"/>
      <use x="111.535156" xlink:href="#DejaVuSans-45"/>
      <use x="147.619141" xlink:href="#DejaVuSans-49"/>
      <use x="211.242188" xlink:href="#DejaVuSans-53"/>
      <use x="274.865234" xlink:href="#DejaVuSans-49"/>
      <use x="338.488281" xlink:href="#DejaVuSans-54"/>
      <use x="402.111328" xlink:href="#DejaVuSans-52"/>
      <use x="465.734375" xlink:href="#DejaVuSans-45"/>
      <use x="501.818359" xlink:href="#DejaVuSans-50"/>
      <use x="565.441406" xlink:href="#DejaVuSans-53"/>
      <use x="629.064453" xlink:href="#DejaVuSans-51"/>
      <use x="692.6875" xlink:href="#DejaVuSans-102"/>
     </g>
    </g>
    <g id="PathCollection_14">
     <g>
      <use style="fill:#8c564b;stroke:#8c564b;" x="895.43125" xlink:href="#mbeaef3b203" y="115.164062"/>
     </g>
    </g>
    <g id="text_23">
     <!-- ls-6115 -->
     <g transform="translate(913.43125 117.789062)scale(0.1 -0.1)">
      <use xlink:href="#DejaVuSans-108"/>
      <use x="27.783203" xlink:href="#DejaVuSans-115"/>
      <use x="79.882812" xlink:href="#DejaVuSans-45"/>
      <use x="115.966797" xlink:href="#DejaVuSans-54"/>
      <use x="179.589844" xlink:href="#DejaVuSans-49"/>
      <use x="243.212891" xlink:href="#DejaVuSans-49"/>
      <use x="306.835938" xlink:href="#DejaVuSans-53"/>
     </g>
    </g>
    <g id="PathCollection_15">
     <g>
      <use style="fill:#e377c2;stroke:#e377c2;" x="895.43125" xlink:href="#m33cab5e5f5" y="129.842187"/>
     </g>
    </g>
    <g id="text_24">
     <!-- cv-236-31d4 -->
     <g transform="translate(913.43125 132.467187)scale(0.1 -0.1)">
      <use xlink:href="#DejaVuSans-99"/>
      <use x="54.980469" xlink:href="#DejaVuSans-118"/>
      <use x="111.535156" xlink:href="#DejaVuSans-45"/>
      <use x="147.619141" xlink:href="#DejaVuSans-50"/>
      <use x="211.242188" xlink:href="#DejaVuSans-51"/>
      <use x="274.865234" xlink:href="#DejaVuSans-54"/>
      <use x="338.488281" xlink:href="#DejaVuSans-45"/>
      <use x="374.572266" xlink:href="#DejaVuSans-51"/>
      <use x="438.195312" xlink:href="#DejaVuSans-49"/>
      <use x="501.818359" xlink:href="#DejaVuSans-100"/>
      <use x="565.294922" xlink:href="#DejaVuSans-52"/>
     </g>
    </g>
    <g id="PathCollection_16">
     <g>
      <use style="fill:#7f7f7f;stroke:#7f7f7f;" x="895.43125" xlink:href="#m57fafcb52d" y="144.520312"/>
     </g>
    </g>
    <g id="text_25">
     <!-- cv-10141-5c4c -->
     <g transform="translate(913.43125 147.145312)scale(0.1 -0.1)">
      <use xlink:href="#DejaVuSans-99"/>
      <use x="54.980469" xlink:href="#DejaVuSans-118"/>
      <use x="111.535156" xlink:href="#DejaVuSans-45"/>
      <use x="147.619141" xlink:href="#DejaVuSans-49"/>
      <use x="211.242188" xlink:href="#DejaVuSans-48"/>
      <use x="274.865234" xlink:href="#DejaVuSans-49"/>
      <use x="338.488281" xlink:href="#DejaVuSans-52"/>
      <use x="402.111328" xlink:href="#DejaVuSans-49"/>
      <use x="465.734375" xlink:href="#DejaVuSans-45"/>
      <use x="501.818359" xlink:href="#DejaVuSans-53"/>
      <use x="565.441406" xlink:href="#DejaVuSans-99"/>
      <use x="620.421875" xlink:href="#DejaVuSans-52"/>
      <use x="684.044922" xlink:href="#DejaVuSans-99"/>
     </g>
    </g>
   </g>
  </g>
 </g>
 <defs>
  <clipPath id="p922c5a5420">
   <rect height="498.4" width="929.9" x="67.3" y="27.8"/>
  </clipPath>
 </defs>
</svg>
